<?xml version="1.0" encoding="utf-8"?>
<!-- Generator: Adobe Illustrator 22.0.0, SVG Export Plug-In . SVG Version: 6.00 Build 0)  -->
<svg version="1.1" id="Layer_1" xmlns="http://www.w3.org/2000/svg" xmlns:xlink="http://www.w3.org/1999/xlink" x="0px" y="0px"
	 viewBox="0 0 49.7 19.2" style="enable-background:new 0 0 49.7 19.2;" xml:space="preserve">
<style type="text/css">
	.st0{fill:none;stroke:#32312A;stroke-width:0.2918;stroke-linecap:round;stroke-miterlimit:10;}
	.st1{fill:none;stroke:#32312A;stroke-width:0.5835;stroke-linecap:round;stroke-linejoin:round;stroke-miterlimit:10;}
	.st2{fill:none;stroke:#32312A;stroke-width:0.5835;stroke-miterlimit:10;}
	.st3{fill:#32312A;}
	.st4{fill:none;stroke:#32312A;stroke-width:0.4862;stroke-linecap:round;stroke-linejoin:round;stroke-miterlimit:10;}
	.st5{fill:none;stroke:#32312A;stroke-width:0.75;stroke-linecap:round;stroke-linejoin:round;stroke-miterlimit:10;}
	.st6{fill:#F7B34C;}
</style>
<g>
	<g>
		<line class="st0" x1="28.2" y1="15" x2="26.5" y2="14.5"/>
		<line class="st0" x1="28" y1="13" x2="26.6" y2="13.6"/>
		<line class="st0" x1="27.6" y1="14" x2="26.8" y2="14"/>
	</g>
	<g>
		<line class="st0" x1="21.1" y1="15" x2="22.9" y2="14.5"/>
		<line class="st0" x1="21.4" y1="13" x2="22.8" y2="13.6"/>
		<line class="st0" x1="21.8" y1="13.9" x2="22.6" y2="14"/>
	</g>
	<path class="st1" d="M24.5,3.3c1.7,0,3.3,0.4,4.7,1.1l3.7-1.1l0.4,3.6c0,0,2.8,2.8,2.9,5h-1c0,0,1.3,1.4,1.8,2.8"/>
	<path class="st1" d="M37.1,15.3H11.9c0.6-1.4,1.7-3.3,1.7-3.3h-1c0.1-2.2,2.9-5,2.9-5l0.3-3.7l3.9,1.2c1.4-0.7,3.2-1.2,4.9-1.2"/>
	<path class="st2" d="M32.6,9.9c0,1.6-1.3,2.9-2.9,2.9s-2.9-1.3-2.9-2.9S28.1,7,29.7,7C31.3,7,32.6,8.3,32.6,9.9z"/>
	<path class="st2" d="M22.1,9.9c0,1.6-1.3,3-3,3c-1.6,0-3-1.3-3-3s1.3-3,3-3C20.8,7,22.1,8.3,22.1,9.9z"/>
	<path class="st3" d="M25.4,13.7c0,0.2-0.3,1-0.8,1c-0.4,0-0.8-0.8-0.8-1s0.3-0.3,0.8-0.3C25,13.4,25.4,13.5,25.4,13.7z"/>
	<line class="st4" x1="23.2" y1="3.4" x2="23.2" y2="6"/>
	<line class="st4" x1="26" y1="3.5" x2="26" y2="6"/>
	<line class="st4" x1="24.6" y1="3.4" x2="24.6" y2="5.2"/>
</g>
<path class="st3" d="M30.3,7.2c-1.2-0.4-2.4,0.3-2.8,1.4c-0.4,1.2,0.3,2.4,1.4,2.8c1.2,0.4,2.4-0.3,2.8-1.4
	C32.1,8.8,31.4,7.5,30.3,7.2z M28.3,7.9c0.1-0.3,0.4-0.4,0.7-0.3c0.3,0.1,0.4,0.4,0.3,0.7c-0.1,0.3-0.4,0.4-0.7,0.3
	C28.4,8.5,28.2,8.2,28.3,7.9z M29.7,11.1c-1.3,0-1.7-0.9-1.7-0.9c2.5,1.8,3.3-1,3.3-1c0.2,0.5-0.1,1-0.1,1
	C30.7,11,29.7,11.1,29.7,11.1z"/>
<path class="st3" d="M21.2,8.7c-0.3-1.2-1.5-1.9-2.7-1.6s-1.9,1.5-1.6,2.7s1.5,1.9,2.7,1.6C20.8,11.1,21.5,9.9,21.2,8.7z M19.5,7.5
	c0.3-0.1,0.6,0.1,0.6,0.4c0.1,0.3-0.1,0.6-0.4,0.6c-0.3,0.1-0.6-0.1-0.6-0.4C19,7.9,19.2,7.6,19.5,7.5z M17.5,10.3
	c-0.7-1-0.2-1.9-0.2-1.9c0,0.4,0,0.6,0,0.9c0.4,2,2.7,1.3,2.7,1.3C19.7,11,19.1,11,19.1,11C18.2,11.1,17.5,10.3,17.5,10.3z"/>
<path class="st5" d="M48.2,15.6H1.5"/>
<circle class="st6" cx="37.8" cy="7.1" r="0.7"/>
<circle class="st6" cx="42.2" cy="11.8" r="0.7"/>
<circle class="st6" cx="43.7" cy="7.6" r="0.7"/>
<circle class="st3" cx="42.4" cy="12" r="0.7"/>
<circle class="st3" cx="43.6" cy="7.3" r="0.7"/>
<circle class="st6" cx="9.2" cy="5.5" r="0.7"/>
<circle class="st6" cx="8.9" cy="11.8" r="0.7"/>
<circle class="st6" cx="3.7" cy="8.8" r="0.7"/>
<circle class="st3" cx="8.9" cy="5.2" r="0.7"/>
<circle class="st3" cx="8.6" cy="11.7" r="0.7"/>
<circle class="st3" cx="3.3" cy="9.1" r="0.7"/>
<circle class="st3" cx="38" cy="6.9" r="0.7"/>
<g>
	<path class="st3" d="M15.3,6.5C15.4,6.5,15.4,6.5,15.3,6.5C15.4,6.4,15.4,6.4,15.3,6.5z"/>
	<path class="st3" d="M33.4,6.4C33.4,6.4,33.4,6.4,33.4,6.4C33.4,6.4,33.4,6.3,33.4,6.4z"/>
	<path class="st3" d="M38.7,15.1c-0.2-0.2-0.5-0.3-0.8-0.4c-0.3-0.1-0.7-0.2-1-0.2c-0.3-0.6-0.9-1.8-1.2-2.1
		c-0.4-0.5-0.4-0.6-0.4-0.6h0.6l0,0.3c0,0,0.9,0.2,0.9-0.3c-0.1-0.4-0.7-2-0.7-2l0,0c-0.5-1.1-1.2-2.5-2.5-3.5c0,0,0,0,0,0
		c-0.1-0.1-0.1-0.1-0.2-0.2l-0.6-2.9L30,4.1c-1.3-0.6-2.9-1-4.8-1c-0.2,0-0.4,0-0.8,0c-0.4,0-0.7,0-0.8,0c-1.9,0-3.6,0.4-4.9,1.1
		l-2.8-0.6l-0.4,2.8c-0.1,0.1-0.1,0.1-0.2,0.2c0,0,0,0,0,0c-1.3,1-2.1,2.4-2.6,3.5l0,0c0,0-0.6,1.5-0.7,1.9
		c-0.1,0.4,1.1,0.3,1.1,0.3l-0.1-0.4h0.4c0,0,0,0.1-0.4,0.6c-0.3,0.3-0.9,1.5-1.2,2.1c-0.3,0-0.7,0.1-1,0.2
		c-0.3,0.1-0.6,0.2-0.8,0.4c-0.3,0.3-0.1,0.8,0,1.1c0.1,0.2,1.2,1.4,1.3,0.8c0-0.1,0.2-0.3,0.2-0.1c0,0.1,0,0.2,0,0.3
		c0,0.2,0.2,0.2,0.4,0.2c0.3,0,0.6,0.1,0.9,0c0.1,0,0.2-0.1,0.3-0.2c0,0,0.1-0.4,0.2-0.4c0.1,0.1,0.1,0.3,0.1,0.4
		c0.1,0.1,0.4,0.1,0.5,0.1c0.3,0,0.5-0.1,0.7-0.3c0.3-0.2,0.4-0.8,0.4-1.1c0-0.1,0-0.2,0-0.3c-0.2-0.8-1-1.1-1.9-1.1
		c0-0.7,0.6-1.7,1-2.2c0.6-0.6,0.5-0.6,0-1.1c-0.4-0.5-0.2-1-0.2-1c0.6-1.5,1.5-2.7,2.6-3.6c0,0,0.1-0.1,0.1-0.1
		c0,0-0.1,0.1-0.1,0.1c0.1-0.1,0.3-0.2,0.4-0.3c-0.1,0.1-0.2,0.2-0.3,0.3c1.1-0.9,7.6-5.5,15.3-0.2l0,0c1.3,1,2.1,1.9,2.8,3.8
		c0,0,0.2,0.5-0.2,1c-0.5,0.5-0.6,0.5,0,1.1c0.4,0.5,1,1.5,1,2.2c-0.9,0-1.7,0.3-1.9,1.1c0,0.1,0,0.2,0,0.3c0,0.3,0.1,0.9,0.4,1.1
		c0.2,0.2,0.4,0.3,0.7,0.3c0.1,0,0.4,0,0.5-0.1c0-0.1,0-0.3,0.1-0.4c0.1,0,0.2,0.4,0.2,0.4c0.1,0.1,0.2,0.2,0.3,0.2
		c0.3,0.1,0.6,0,0.9,0c0.2,0,0.4,0,0.4-0.2c0-0.1,0-0.2,0-0.3c0-0.2,0.2,0,0.2,0.1c0.1,0.6,1.2-0.6,1.3-0.8
		C38.8,15.9,39,15.4,38.7,15.1z M29,4.3c-2.1-1.1-5.3-1.9-9.1,0.1l-0.1,0l-0.3-0.1c1.9-0.9,3.5-1.2,4.6-1.3c0.1,0,0.2,0,0.3,0
		c0.1,0,0.2,0,0.3,0c1,0.1,2.6,0.3,4.5,1.2L29,4.3z"/>
</g>
</svg>
