<?xml version="1.0" encoding="utf-8"?>
<!-- Generator: Adobe Illustrator 22.0.0, SVG Export Plug-In . SVG Version: 6.00 Build 0)  -->
<svg version="1.1" id="Layer_1" xmlns="http://www.w3.org/2000/svg" xmlns:xlink="http://www.w3.org/1999/xlink" x="0px" y="0px"
	 viewBox="0 0 49.7 19.2" style="enable-background:new 0 0 49.7 19.2;" xml:space="preserve">
<style type="text/css">
	.st0{fill:none;stroke:#32312A;stroke-width:0.2918;stroke-linecap:round;stroke-miterlimit:10;}
	.st1{fill:none;stroke:#32312A;stroke-width:0.5835;stroke-linecap:round;stroke-linejoin:round;stroke-miterlimit:10;}
	.st2{fill:none;stroke:#32312A;stroke-width:0.5835;stroke-miterlimit:10;}
	.st3{fill:#32312A;}
	.st4{fill:none;stroke:#32312A;stroke-width:0.4862;stroke-linecap:round;stroke-linejoin:round;stroke-miterlimit:10;}
	.st5{fill:#32312A;stroke:#32312A;stroke-width:0.1945;stroke-linecap:round;stroke-miterlimit:10;}
	.st6{fill:none;stroke:#32312A;stroke-width:0.75;stroke-linecap:round;stroke-linejoin:round;stroke-miterlimit:10;}
	.st7{fill:#F7B34C;}
</style>
<g>
	<g>
		<line class="st0" x1="28.2" y1="15" x2="26.5" y2="14.5"/>
		<line class="st0" x1="28" y1="13" x2="26.6" y2="13.6"/>
		<line class="st0" x1="27.6" y1="14" x2="26.8" y2="14"/>
	</g>
	<g>
		<line class="st0" x1="21.1" y1="15" x2="22.9" y2="14.5"/>
		<line class="st0" x1="21.4" y1="13" x2="22.8" y2="13.6"/>
		<line class="st0" x1="21.8" y1="13.9" x2="22.6" y2="14"/>
	</g>
	<path class="st1" d="M24.5,3.3c1.7,0,3.3,0.4,4.7,1.1l4.5-2.9l-0.4,5.4c0,0,2.8,2.8,2.9,5h-1c0,0,1.3,1.4,1.8,2.8"/>
	<path class="st1" d="M11.7,15c0.6-1.4,1.9-3,1.9-3h-1c0.1-2.2,2.9-5,2.9-5l-0.4-5.4l4.5,2.9c1.4-0.7,3.2-1.2,4.9-1.2"/>
	<path class="st2" d="M32.6,9.9c0,1.6-1.3,2.9-2.9,2.9s-2.9-1.3-2.9-2.9S28.1,7,29.7,7C31.3,7,32.6,8.3,32.6,9.9z"/>
	<path class="st2" d="M22.1,9.9c0,1.6-1.3,3-3,3c-1.6,0-3-1.3-3-3s1.3-3,3-3C20.8,7,22.1,8.3,22.1,9.9z"/>
	<path class="st3" d="M25.4,13.7c0,0.2-0.3,1-0.8,1c-0.4,0-0.8-0.8-0.8-1s0.3-0.3,0.8-0.3C25,13.4,25.4,13.5,25.4,13.7z"/>
	<line class="st4" x1="23.2" y1="3.4" x2="23.2" y2="6"/>
	<line class="st4" x1="26" y1="3.5" x2="26" y2="6"/>
	<line class="st4" x1="24.6" y1="3.4" x2="24.6" y2="5.2"/>
</g>
<path class="st3" d="M30.3,7.2c-1.2-0.4-2.4,0.3-2.8,1.4c-0.4,1.2,0.3,2.4,1.4,2.8c1.2,0.4,2.4-0.3,2.8-1.4
	C32.1,8.8,31.4,7.5,30.3,7.2z M28.3,7.9c0.1-0.3,0.4-0.4,0.7-0.3c0.3,0.1,0.4,0.4,0.3,0.7c-0.1,0.3-0.4,0.4-0.7,0.3
	C28.4,8.5,28.2,8.2,28.3,7.9z M29.7,11.1c-1.3,0-1.7-0.9-1.7-0.9c1.4,1,1.9-0.2,1.9-0.2c1.2,0.4,1.4-0.8,1.4-0.8
	c0.2,0.5-0.1,1-0.1,1C30.7,11,29.7,11.1,29.7,11.1z"/>
<path class="st3" d="M21.2,8.7c-0.3-1.2-1.5-1.9-2.7-1.6s-1.9,1.5-1.6,2.7s1.5,1.9,2.7,1.6C20.8,11.1,21.5,9.9,21.2,8.7z M19.5,7.5
	c0.3-0.1,0.6,0.1,0.6,0.4c0.1,0.3-0.1,0.6-0.4,0.6c-0.3,0.1-0.6-0.1-0.6-0.4C19,7.9,19.2,7.6,19.5,7.5z M17.5,10.3
	c-0.7-1-0.2-1.9-0.2-1.9c-0.1,1.7,1.2,1.5,1.2,1.5c0.3,1.2,1.5,0.7,1.5,0.7C19.7,11,19.1,11,19.1,11C18.2,11.1,17.5,10.3,17.5,10.3z
	"/>
<path class="st5" d="M19.8,4.4C19.8,4.4,19.9,4.4,19.8,4.4C19.9,4.4,19.8,4.4,19.8,4.4l-4.7-2.9L15.4,7c-0.1,0-0.1,0.1-0.2,0.1
	c-2.6,2-2.7,4.8-2.7,4.8h1c0,0,0,0.1-0.4,0.6c-0.3,0.3-0.9,1.5-1.2,2.1c-0.3,0-0.7,0.1-1,0.2c-0.3,0.1-0.6,0.2-0.8,0.4
	c-0.3,0.3-0.1,0.8,0,1.1c0.1,0.2,1.2,1.4,1.3,0.8c0-0.1,0.2-0.3,0.2-0.1c0,0.1,0,0.2,0,0.3c0,0.2,0.2,0.2,0.4,0.2
	c0.3,0,0.6,0.1,0.9,0c0.1,0,0.2-0.1,0.3-0.2c0,0,0.1-0.4,0.2-0.4c0.1,0.1,0.1,0.3,0.1,0.4c0.1,0.1,0.4,0.1,0.5,0.1
	c0.3,0,0.5-0.1,0.7-0.3c0.3-0.2,0.4-0.8,0.4-1.1c0-0.1,0-0.2,0-0.3c-0.2-0.8-1-1.1-1.9-1.1c0-0.7,0.6-1.7,1-2.2
	c0.6-0.6,0.5-0.6,0-1.1c-0.4-0.5-0.2-1-0.2-1c0.1-2.4,4.3-4.7,5.6-5.5c0.2-0.1,0.9-0.5,0.9-0.6L19.8,4.4z"/>
<path class="st5" d="M38.9,15.2c-0.2-0.2-0.5-0.3-0.8-0.4c-0.4-0.1-0.8-0.2-1.2-0.2c-0.4-0.7-1-1.8-1.2-2.1
	c-0.4-0.5-0.4-0.6-0.4-0.6h1c0,0-0.1-2.8-2.7-4.8c-0.1,0-0.1-0.1-0.2-0.1l0.3-5.5l-4.6,2.9c-0.1,0-0.1,0-0.1,0s0,0,0.1,0.1l-0.7-0.3
	c0.2,0.1,1,0.5,1.3,0.7c1.5,0.9,4.8,3.2,4.8,5.5c0,0,0.2,0.5-0.2,1s-0.5,0.5,0,1.1c0.5,0.5,1,1.5,1,2.2c-0.7,0.1-1.5,0.4-1.6,1.1
	c0,0.1,0,0.2,0,0.3c0,0.3,0.1,0.9,0.4,1.1c0.2,0.1,0.5,0.3,0.7,0.3c0.1,0,0.5,0,0.5-0.1c0.1-0.1,0.1-0.3,0.1-0.4
	c0,0,0.2,0.3,0.2,0.4s0.1,0.2,0.3,0.2c0.3,0,0.6,0,0.9,0c0.2,0,0.4,0,0.4-0.2c0-0.1,0-0.2,0-0.3c0.1-0.2,0.2,0,0.2,0.1
	c0.2,0.6,1.2-0.6,1.3-0.8C39,16,39.2,15.5,38.9,15.2z"/>
<path class="st6" d="M48.2,15.6H1.5"/>
<circle class="st7" cx="37.8" cy="7.1" r="0.7"/>
<circle class="st7" cx="42.2" cy="11.8" r="0.7"/>
<circle class="st7" cx="43.7" cy="7.6" r="0.7"/>
<circle class="st3" cx="42.4" cy="12" r="0.7"/>
<circle class="st3" cx="43.6" cy="7.3" r="0.7"/>
<circle class="st7" cx="9.2" cy="5.5" r="0.7"/>
<circle class="st7" cx="8.9" cy="11.8" r="0.7"/>
<circle class="st7" cx="3.7" cy="8.8" r="0.7"/>
<circle class="st3" cx="8.9" cy="5.2" r="0.7"/>
<circle class="st3" cx="8.6" cy="11.7" r="0.7"/>
<circle class="st3" cx="3.3" cy="9.1" r="0.7"/>
<circle class="st3" cx="38" cy="6.9" r="0.7"/>
</svg>
