<?xml version="1.0" encoding="utf-8"?>
<!-- Generator: Adobe Illustrator 22.0.0, SVG Export Plug-In . SVG Version: 6.00 Build 0)  -->
<svg version="1.1" id="Layer_1" xmlns="http://www.w3.org/2000/svg" xmlns:xlink="http://www.w3.org/1999/xlink" x="0px" y="0px"
	 viewBox="0 0 49.7 19.2" style="enable-background:new 0 0 49.7 19.2;" xml:space="preserve">
<style type="text/css">
	.st0{fill:none;stroke:#32312A;stroke-width:0.75;stroke-linecap:round;stroke-linejoin:round;stroke-miterlimit:10;}
	.st1{fill:#F7B34C;}
	.st2{fill:#32312A;}
	.st3{fill:none;stroke:#FFFFFF;stroke-width:0.2918;stroke-linecap:round;stroke-miterlimit:10;}
	.st4{display:none;fill:none;stroke:#FFFFFF;stroke-width:0.2918;stroke-linecap:round;stroke-miterlimit:10;}
</style>
<path class="st0" d="M48.2,15.6H1.5"/>
<circle class="st1" cx="37.8" cy="7.1" r="0.7"/>
<circle class="st1" cx="42.2" cy="11.8" r="0.7"/>
<circle class="st1" cx="43.7" cy="7.6" r="0.7"/>
<circle class="st2" cx="42.4" cy="12" r="0.7"/>
<circle class="st2" cx="43.6" cy="7.3" r="0.7"/>
<circle class="st1" cx="9.2" cy="5.5" r="0.7"/>
<circle class="st1" cx="8.9" cy="11.8" r="0.7"/>
<circle class="st1" cx="3.7" cy="8.8" r="0.7"/>
<circle class="st2" cx="8.9" cy="5.2" r="0.7"/>
<circle class="st2" cx="8.6" cy="11.7" r="0.7"/>
<circle class="st2" cx="3.3" cy="9.1" r="0.7"/>
<circle class="st2" cx="38" cy="6.9" r="0.7"/>
<path class="st2" d="M30.5,7.5c-1.4-0.5-2.8,0.3-3.3,1.6c-0.5,1.4,0.3,2.8,1.6,3.3c1.4,0.5,2.8-0.3,3.3-1.6
	C32.6,9.3,31.8,7.8,30.5,7.5z M28.8,7.7c0.4,0,0.8,0.3,0.8,0.8c0,0.4-0.3,0.8-0.8,0.8c-0.4,0-0.8-0.3-0.8-0.8
	C28,8.1,28.4,7.7,28.8,7.7z"/>
<path class="st2" d="M16.5,10.4c0.4,1.3,1.7,2.2,3.1,1.9c1.3-0.4,2.2-1.7,1.9-3.1c-0.4-1.3-1.7-2.2-3.1-1.9
	C17.1,7.5,16.2,9,16.5,10.4z M20.8,8.6c0,0.4-0.4,0.7-0.8,0.7c-0.4,0-0.7-0.4-0.7-0.8c0-0.4,0.4-0.7,0.8-0.7
	C20.6,7.8,20.9,8.1,20.8,8.6z"/>
<path class="st2" d="M38.7,15.1c-0.2-0.2-0.5-0.3-0.8-0.4c-0.3-0.1-0.7-0.2-1-0.2c-0.2-0.4-0.4-0.8-0.6-1.1c-0.2-0.4-0.5-0.8-0.6-1
	c-0.2-0.3-0.1-0.1-0.1-0.2l0,0c0,0,1.3,0.1,1.2-0.4c-0.1-0.4-0.7-2-0.7-2c-0.5-1.1-1.2-2.5-2.5-3.5c-0.1-0.1-0.1-0.1-0.2-0.2l-0.4-2
	l-0.1-0.8l-0.1,0l0-0.1L30,4.1c-0.4-0.2-0.8-0.3-1.2-0.4c-0.9-0.3-1.7-0.5-2.6-0.7V5c0,0.1-0.1,0.2-0.2,0.2S25.8,5.1,25.8,5V3
	c-0.3,0-0.6-0.1-1-0.1v1.3c0,0.1-0.1,0.2-0.2,0.2s-0.2-0.1-0.2-0.2V2.9c-0.3,0-0.7,0-1,0V5c0,0.1-0.1,0.2-0.2,0.2S22.9,5.1,22.9,5V3
	C20.6,3.2,19,4,19,4s0,0,0.1,0c-0.1,0-0.3,0.1-0.4,0.1l-1-0.2l-1.9-0.6l-0.2,2.1l-0.1,0.9c-0.1,0.1-0.1,0.1-0.2,0.2
	c-1.3,1-2.1,2.4-2.6,3.5c0,0-0.7,1.5-0.8,1.9c-0.1,0.6,1.2,0.4,1.2,0.4c0,0,0,0.1-0.1,0.1c-0.3,0.3-0.9,1.5-1.2,2.1
	c-0.3,0-0.7,0.1-1,0.2c-0.3,0.1-0.6,0.2-0.8,0.4c-0.3,0.3-0.1,0.8,0,1.1c0.1,0.2,1.2,1.4,1.3,0.8c0-0.1,0.2-0.3,0.2-0.1
	c0,0.1,0,0.2,0,0.3c0,0.2,0.2,0.2,0.4,0.2c0.3,0,0.6,0.1,0.9,0c0.1,0,0.2-0.1,0.3-0.2c0,0,0.1-0.4,0.2-0.4c0.1,0.1,0.1,0.3,0.1,0.4
	c0.1,0.1,0.4,0.1,0.5,0.1c0.3,0,0.5-0.1,0.7-0.3c0.3-0.2,0.4-0.8,0.4-1.1c0-0.1,0-0.2,0-0.3c0-0.1-0.1-0.2-0.2-0.3h0.5l9.3,0.3
	l8-0.3h1.1c-0.1,0.1-0.1,0.2-0.1,0.3c0,0.1,0,0.2,0,0.3c0,0.3,0.1,0.9,0.4,1.1c0.2,0.2,0.4,0.3,0.7,0.3c0.1,0,0.4,0,0.5-0.1
	c0-0.1,0-0.3,0.1-0.4c0.1,0,0.2,0.4,0.2,0.4c0.1,0.1,0.2,0.2,0.3,0.2c0.3,0.1,0.6,0,0.9,0c0.2,0,0.4,0,0.4-0.2c0-0.1,0-0.2,0-0.3
	c0-0.2,0.2,0,0.2,0.1c0.1,0.6,1.2-0.6,1.3-0.8C38.8,15.9,39,15.4,38.7,15.1z M19.1,12.9c-1.7,0-3-1.3-3-3s1.4-3,3-3s3,1.3,3,3
	S20.7,12.9,19.1,12.9z M24.6,14.7c-0.4,0-0.8-0.8-0.8-1s0.3-0.3,0.8-0.3c0.4,0,0.8,0.1,0.8,0.3S25.1,14.7,24.6,14.7z M29.8,12.9
	c-1.7,0-3-1.3-3-3c0-1.7,1.4-3,3-3s3,1.3,3,3C32.8,11.6,31.5,12.9,29.8,12.9z"/>
<g>
	<line class="st3" x1="21.4" y1="14.9" x2="23.4" y2="14.2"/>
	<line class="st3" x1="21.4" y1="13" x2="23.4" y2="13.7"/>
	<line class="st4" x1="21.8" y1="13.9" x2="22.6" y2="14"/>
</g>
<g>
	<line class="st3" x1="28" y1="14.9" x2="25.9" y2="14.2"/>
	<line class="st3" x1="28" y1="13" x2="25.9" y2="13.7"/>
	<line class="st4" x1="27.6" y1="14" x2="26.8" y2="14"/>
</g>
</svg>
