<?xml version="1.0" encoding="utf-8"?>
<!-- Generator: Adobe Illustrator 22.0.0, SVG Export Plug-In . SVG Version: 6.00 Build 0)  -->
<svg version="1.1" id="Layer_1" xmlns="http://www.w3.org/2000/svg" xmlns:xlink="http://www.w3.org/1999/xlink" x="0px" y="0px"
	 viewBox="0 0 49.7 57.8" style="enable-background:new 0 0 49.7 57.8;" xml:space="preserve">
<style type="text/css">
	.st0{fill:none;stroke:#32312A;stroke-width:0.2918;stroke-linecap:round;stroke-miterlimit:10;}
	.st1{fill:none;stroke:#32312A;stroke-width:0.5835;stroke-linecap:round;stroke-linejoin:round;stroke-miterlimit:10;}
	.st2{fill:none;stroke:#32312A;stroke-width:0.5835;stroke-miterlimit:10;}
	.st3{fill:#32312A;}
	.st4{fill:none;stroke:#32312A;stroke-width:0.4862;stroke-linecap:round;stroke-linejoin:round;stroke-miterlimit:10;}
	.st5{fill:#32312A;stroke:#32312A;stroke-width:0.1945;stroke-linecap:round;stroke-miterlimit:10;}
	.st6{fill:none;stroke:#32312A;stroke-width:0.75;stroke-linecap:round;stroke-linejoin:round;stroke-miterlimit:10;}
	.st7{fill:#F7B34C;}
</style>
<g>
	<g>
		<line class="st0" x1="28.2" y1="53.6" x2="26.5" y2="53.1"/>
		<line class="st0" x1="28" y1="51.6" x2="26.6" y2="52.2"/>
		<line class="st0" x1="27.6" y1="52.6" x2="26.8" y2="52.6"/>
	</g>
	<g>
		<line class="st0" x1="21.1" y1="53.6" x2="22.9" y2="53.1"/>
		<line class="st0" x1="21.4" y1="51.6" x2="22.8" y2="52.2"/>
		<line class="st0" x1="21.8" y1="52.5" x2="22.6" y2="52.6"/>
	</g>
	<path class="st1" d="M24.5,41.9c1.7,0,3.3,0.4,4.7,1.1l4.5-2.9l-0.4,5.4c0,0,2.8,2.8,2.9,5h-1c0,0,1.3,1.4,1.8,2.8"/>
	<path class="st1" d="M11.7,53.6c0.6-1.4,1.9-3,1.9-3h-1c0.1-2.2,2.9-5,2.9-5l-0.4-5.4l4.5,2.9c1.4-0.7,3.2-1.2,4.9-1.2"/>
	<path class="st2" d="M32.6,48.5c0,1.6-1.3,2.9-2.9,2.9s-2.9-1.3-2.9-2.9c0-1.6,1.3-2.9,2.9-2.9C31.3,45.6,32.6,46.9,32.6,48.5z"/>
	<path class="st2" d="M22.1,48.5c0,1.6-1.3,3-3,3c-1.6,0-3-1.3-3-3c0-1.7,1.3-3,3-3C20.8,45.6,22.1,46.9,22.1,48.5z"/>
	<path class="st3" d="M25.4,52.3c0,0.2-0.3,1-0.8,1c-0.4,0-0.8-0.8-0.8-1s0.3-0.3,0.8-0.3C25,52,25.4,52.1,25.4,52.3z"/>
	<line class="st4" x1="23.2" y1="42" x2="23.2" y2="44.6"/>
	<line class="st4" x1="26" y1="42.1" x2="26" y2="44.6"/>
	<line class="st4" x1="24.6" y1="42" x2="24.6" y2="43.8"/>
</g>
<path class="st3" d="M30.3,45.8c-1.2-0.4-2.4,0.3-2.8,1.4c-0.4,1.2,0.3,2.4,1.4,2.8c1.2,0.4,2.4-0.3,2.8-1.4
	C32.1,47.4,31.4,46.1,30.3,45.8z M28.3,46.5c0.1-0.3,0.4-0.4,0.7-0.3c0.3,0.1,0.4,0.4,0.3,0.7c-0.1,0.3-0.4,0.4-0.7,0.3
	C28.4,47.1,28.2,46.8,28.3,46.5z M29.7,49.7c-1.3,0-1.7-0.9-1.7-0.9c1.4,1,1.9-0.2,1.9-0.2c1.2,0.4,1.4-0.8,1.4-0.8
	c0.2,0.5-0.1,1-0.1,1C30.7,49.6,29.7,49.7,29.7,49.7z"/>
<path class="st3" d="M21.2,47.3c-0.3-1.2-1.5-1.9-2.7-1.6c-1.2,0.3-1.9,1.5-1.6,2.7c0.3,1.2,1.5,1.9,2.7,1.6
	C20.8,49.7,21.5,48.5,21.2,47.3z M19.5,46.1c0.3-0.1,0.6,0.1,0.6,0.4c0.1,0.3-0.1,0.6-0.4,0.6c-0.3,0.1-0.6-0.1-0.6-0.4
	C19,46.5,19.2,46.2,19.5,46.1z M17.5,48.9c-0.7-1-0.2-1.9-0.2-1.9c-0.1,1.7,1.2,1.5,1.2,1.5c0.3,1.2,1.5,0.7,1.5,0.7
	c-0.3,0.4-0.9,0.4-0.9,0.4C18.2,49.7,17.5,48.9,17.5,48.9z"/>
<path class="st5" d="M19.8,43C19.8,43,19.9,43,19.8,43C19.9,43,19.8,43,19.8,43l-4.7-2.9l0.3,5.5c-0.1,0-0.1,0.1-0.2,0.1
	c-2.6,2-2.7,4.8-2.7,4.8h1c0,0,0,0.1-0.4,0.6c-0.3,0.3-0.9,1.5-1.2,2.1c-0.3,0-0.7,0.1-1,0.2c-0.3,0.1-0.6,0.2-0.8,0.4
	c-0.3,0.3-0.1,0.8,0,1.1c0.1,0.2,1.2,1.4,1.3,0.8c0-0.1,0.2-0.3,0.2-0.1c0,0.1,0,0.2,0,0.3c0,0.2,0.2,0.2,0.4,0.2
	c0.3,0,0.6,0.1,0.9,0c0.1,0,0.2-0.1,0.3-0.2c0,0,0.1-0.4,0.2-0.4c0.1,0.1,0.1,0.3,0.1,0.4C13.6,56,13.9,56,14,56
	c0.3,0,0.5-0.1,0.7-0.3c0.3-0.2,0.4-0.8,0.4-1.1c0-0.1,0-0.2,0-0.3c-0.2-0.8-1-1.1-1.9-1.1c0-0.7,0.6-1.7,1-2.2
	c0.6-0.6,0.5-0.6,0-1.1c-0.4-0.5-0.2-1-0.2-1c0.1-2.4,4.3-4.7,5.6-5.5c0.2-0.1,0.9-0.5,0.9-0.6L19.8,43z"/>
<path class="st5" d="M38.9,53.8c-0.2-0.2-0.5-0.3-0.8-0.4c-0.4-0.1-0.8-0.2-1.2-0.2c-0.4-0.7-1-1.8-1.2-2.1
	c-0.4-0.5-0.4-0.6-0.4-0.6h1c0,0-0.1-2.8-2.7-4.8c-0.1,0-0.1-0.1-0.2-0.1l0.3-5.5L29.1,43C29,43,29,43,29,43s0,0,0.1,0.1l-0.7-0.3
	c0.2,0.1,1,0.5,1.3,0.7c1.5,0.9,4.8,3.2,4.8,5.5c0,0,0.2,0.5-0.2,1s-0.5,0.5,0,1.1c0.5,0.5,1,1.5,1,2.2c-0.7,0.1-1.5,0.4-1.6,1.1
	c0,0.1,0,0.2,0,0.3c0,0.3,0.1,0.9,0.4,1.1c0.2,0.1,0.5,0.3,0.7,0.3c0.1,0,0.5,0,0.5-0.1c0.1-0.1,0.1-0.3,0.1-0.4
	c0,0,0.2,0.3,0.2,0.4c0,0.1,0.1,0.2,0.3,0.2c0.3,0,0.6,0,0.9,0c0.2,0,0.4,0,0.4-0.2c0-0.1,0-0.2,0-0.3c0.1-0.2,0.2,0,0.2,0.1
	c0.2,0.6,1.2-0.6,1.3-0.8C39,54.6,39.2,54.1,38.9,53.8z"/>
<path class="st6" d="M48.2,54.2H1.5"/>
<circle class="st7" cx="37.8" cy="45.7" r="0.7"/>
<circle class="st7" cx="42.2" cy="50.5" r="0.7"/>
<circle class="st7" cx="44.2" cy="38.4" r="0.7"/>
<circle class="st3" cx="42.4" cy="50.6" r="0.7"/>
<circle class="st3" cx="44" cy="38.1" r="0.7"/>
<circle class="st7" cx="9.6" cy="38" r="0.7"/>
<circle class="st7" cx="8.9" cy="50.5" r="0.7"/>
<circle class="st7" cx="4.2" cy="43.2" r="0.7"/>
<circle class="st3" cx="9.2" cy="37.7" r="0.7"/>
<circle class="st3" cx="8.6" cy="50.3" r="0.7"/>
<circle class="st3" cx="3.8" cy="43.5" r="0.7"/>
<circle class="st7" cx="24.7" cy="21.7" r="0.7"/>
<circle class="st7" cx="24.5" cy="33.5" r="0.7"/>
<circle class="st7" cx="15.4" cy="28.8" r="0.7"/>
<circle class="st3" cx="24.3" cy="21.4" r="0.7"/>
<circle class="st3" cx="24.2" cy="33.4" r="0.7"/>
<circle class="st3" cx="15" cy="29.1" r="0.7"/>
<circle class="st3" cx="38" cy="45.5" r="0.7"/>
<circle class="st7" cx="33.2" cy="29.2" r="0.7"/>
<circle class="st7" cx="32.6" cy="15.1" r="0.7"/>
<circle class="st7" cx="40.5" cy="33.2" r="0.7"/>
<circle class="st3" cx="32.8" cy="15.3" r="0.7"/>
<circle class="st3" cx="40.3" cy="33" r="0.7"/>
<circle class="st3" cx="33.4" cy="29" r="0.7"/>
<circle class="st7" cx="5.8" cy="20.1" r="0.7"/>
<circle class="st7" cx="4.4" cy="28.2" r="0.7"/>
<circle class="st3" cx="5.5" cy="19.9" r="0.7"/>
<circle class="st7" cx="44.3" cy="21.9" r="0.7"/>
<circle class="st3" cx="44" cy="21.6" r="0.7"/>
<circle class="st3" cx="4" cy="28.1" r="0.7"/>
<circle class="st7" cx="16.7" cy="15.4" r="0.7"/>
<circle class="st3" cx="16.9" cy="15.2" r="0.7"/>
</svg>
